<?xml version="1.0" encoding="utf-8"?>
<!-- Generator: Adobe Illustrator 27.9.0, SVG Export Plug-In . SVG Version: 6.00 Build 0)  -->
<svg version="1.1" id="a" xmlns="http://www.w3.org/2000/svg" xmlns:xlink="http://www.w3.org/1999/xlink" x="0px" y="0px"
	 viewBox="0 0 200 200" style="enable-background:new 0 0 200 200;" xml:space="preserve">
<style type="text/css">
	.st0{fill:#2359A8;}
</style>
<path class="st0" d="M46.6,48.9c0-14.7,4.3-26.4,12.9-35.2C67.6,4.7,80,0.1,96.6,0c13.2,0,24.4,3,33.7,8.9
	c9.3,6.1,14.1,16.4,14.3,30.9c0,8.3-2.2,15.3-6.5,21.1c-4.5,5.9-11,9.8-19.5,11.7V73c10.8,0.9,19.4,5.2,25.6,12.8
	c6.2,7.6,9.3,17.2,9.3,28.8c-0.1,13.6-4,24.4-11.7,32.4c-7.9,8.2-18.6,12.4-32.2,12.5c-6.4,0-12.4-1.3-18-3.8
	c-5.8-2.6-10.5-6.6-14.1-12h-0.5V200H46.6C46.6,200,46.6,48.9,46.6,48.9z M93.3,63.7h4.4c5.4,0,9.7-1.8,13.1-5.4
	c3.2-3.6,4.8-8.4,4.8-14.3s-1.7-10.8-5-14.5c-3.3-3.6-8-5.4-13.9-5.4C83,24.1,76.5,31.9,76.9,47.2v54.4c0.2,22.3,8.4,33.2,24.6,32.8
	c6.9,0,12.3-2.5,16-7.4c3.7-4.5,5.5-9.9,5.5-16.5c-0.3-15.9-8.4-23.9-24.4-24.2c-1.8,0-3.7,0.3-5.4,1L93.3,63.7L93.3,63.7z"/>
</svg>
